<svg id="Logo" xmlns="http://www.w3.org/2000/svg" xmlns:xlink="http://www.w3.org/1999/xlink" width="138" height="95" viewBox="0 0 138 95">
  <defs>
    <clipPath id="clip-path">
      <rect id="Rechteck_26" data-name="Rechteck 26" width="138" height="95" fill="none"/>
    </clipPath>
  </defs>
  <g id="Gruppe_7" data-name="Gruppe 7" clip-path="url(#clip-path)">
    <path id="Pfad_15" data-name="Pfad 15" d="M99.506,17.44c-5.743-5.513-26.344-6.1-34.919-6.1-4.1,0-6.914.129-8.227.2s-36.8,2.176-44.681,10.653c-3.781,4.1-1.582,12.886,0,19.344.475,1.9,4.747,18.8,12.009,25.773,5.031,4.911,15.426,7.717,28.479,7.717,2.468,0,5-.1,7.547-.3,15.711-1.26,30.315-5.913,34.413-8.591,3.607-2.42,4.889-9.722,5.822-15.063.158-.888.3-1.7.443-2.405.633-3.193,3.892-26.675-.87-31.214m0,30.97c-.142.716-.285,1.532-.443,2.434-.839,4.825-2.12,11.455-5.237,13.5-3.955,2.649-18.781,7.159-34.223,8.39-2.5.2-4.984.3-7.4.3-12.468,0-20.41-2.72-25.109-7.288C21.394,60.251,17.074,48.08,15.413,41.251c-1.5-6.171-3.592-14.648-.269-18.17,7.468-8.075,40.979-10.152,41.311-10.18,2.2-.129,5.158-.2,8.132-.2,6.534,0,28.891.415,34.4,5.727,3.734,3.565,1.582,24.241.475,30.068" transform="translate(5.583 4.897)" fill="#fff"/>
  </g>
  <g id="Gruppe_8" data-name="Gruppe 8" clip-path="url(#clip-path)">
    <path id="Pfad_16" data-name="Pfad 16" d="M34.965,19.777c2.674,0,4.4.4,5.174,1.217s1.155,2.606,1.155,5.4c0,3.064-.38,5-1.155,5.727s-2.658,1.2-5.633,1.2c-2.674,0-4.414-.4-5.205-1.188s-1.171-2.52-1.171-5.183c0-3.193.38-5.183,1.155-6s2.658-1.231,5.68-1.231M34.744,21.9c-1.883,0-2.975.215-3.291.659a10.979,10.979,0,0,0-.49,4.539,6.117,6.117,0,0,0,.57,3.465c.364.387,1.456.587,3.275.587s2.785-.229,3.164-.659a8.6,8.6,0,0,0,.522-4.009,8.506,8.506,0,0,0-.506-3.966c-.316-.415-1.392-.616-3.164-.616" transform="translate(16.377 8.515)" fill="#fff"/>
    <path id="Pfad_17" data-name="Pfad 17" d="M37.84,22.675h2.516l-.095,1.432h0a3.571,3.571,0,0,1,3.354-1.518,3.921,3.921,0,0,1,3.164,1,5.93,5.93,0,0,1,.807,3.665,6.362,6.362,0,0,1-.839,3.837,3.878,3.878,0,0,1-3.164,1.045,3.274,3.274,0,0,1-3.164-1.432h0v5.369H37.84Zm4.873,1.647a2.288,2.288,0,0,0-1.851.587,4.612,4.612,0,0,0-.427,2.448,4.306,4.306,0,0,0,.459,2.405,2.361,2.361,0,0,0,1.946.587,2.315,2.315,0,0,0,1.883-.573,4.509,4.509,0,0,0,.427-2.434,4.625,4.625,0,0,0-.427-2.477,2.506,2.506,0,0,0-1.962-.558" transform="translate(22.03 9.741)" fill="#fff"/>
    <path id="Pfad_18" data-name="Pfad 18" d="M52.911,23.27v1.7H48.845v4.7c0,.873.364,1.3,1.092,1.3s1.2-.53,1.2-1.575v-.372h2.12v1.589c-.142,1.432-1.313,2.148-3.528,2.148S46.424,31.847,46.424,30V24.989H45V23.27h1.345V21.18h2.468v2.09Z" transform="translate(26.199 9.146)" fill="#fff"/>
    <path id="Pfad_19" data-name="Pfad 19" d="M53.908,21.716H51.44V19.84h2.468Zm0,11.455H51.44V23.849h2.468Z" transform="translate(29.948 8.567)" fill="#fff"/>
    <path id="Pfad_20" data-name="Pfad 20" d="M47.588,8.5v7.646h.649l2.785-3.637H53.9l-3.607,4.41,4.335,4.954H51.56l-3.354-4.152h-.617v4.152H45.12V8.5Z" transform="translate(41.426 19.907)" fill="#fff"/>
    <path id="Pfad_21" data-name="Pfad 21" d="M24.057,25.762v11.1h-2.8v-11.1H17V23.5H28.471v2.262Z" transform="translate(25.055 26.385)" fill="#fff"/>
    <path id="Pfad_22" data-name="Pfad 22" d="M36.12,40.368H33.588a2.546,2.546,0,0,1,.854-2.191,7.067,7.067,0,0,1,3.433-.558,7.135,7.135,0,0,1,3.766.687,3.038,3.038,0,0,1,.981,2.663v6.114H40.17l.111-1.289h0c-.475.931-1.582,1.432-3.291,1.432q-3.75,0-3.75-2.864c0-1.947,1.282-2.864,3.829-2.864,1.709,0,2.753.358,3.164,1.06h0V41.127a1.867,1.867,0,0,0-.427-1.432,2.832,2.832,0,0,0-1.725-.358c-1.266,0-1.9.444-1.9,1.317M37.765,43.1c-1.408,0-2.1.444-2.1,1.317,0,.6.142,1,.443,1.188a3.751,3.751,0,0,0,1.8.286c1.582,0,2.263-.458,2.263-1.432s-.807-1.432-2.4-1.432" transform="translate(19.352 16.232)" fill="#fff"/>
    <path id="Pfad_23" data-name="Pfad 23" d="M47.415,43.456h2.468v.329l-.142,1.432c-.316,1.289-1.788,1.933-4.446,1.933a5.7,5.7,0,0,1-3.924-.959,5.508,5.508,0,0,1-.965-3.852,5.457,5.457,0,0,1,.965-3.794,5.255,5.255,0,0,1,3.734-.974,6.555,6.555,0,0,1,3.639.7,3.189,3.189,0,0,1,.949,2.706h-2.4c0-1.088-.7-1.647-2.088-1.647-.981,0-1.582.186-1.851.53a5.14,5.14,0,0,0-.4,2.534,4.4,4.4,0,0,0,.411,2.463q.4.515,2.041.515a2.533,2.533,0,0,0,1.582-.358,2.194,2.194,0,0,0,.364-1.561" transform="translate(23.499 16.208)" fill="#fff"/>
    <path id="Pfad_24" data-name="Pfad 24" d="M40.4,23.5v7.646h.633l2.785-3.651H46.7L43.11,31.9l4.335,4.954H44.375l-3.37-4.152h-.6v4.152H37.92V23.5Z" transform="translate(37.234 26.385)" fill="#fff"/>
  </g>
</svg>
